<svg width="22" height="22" viewBox="0 0 22 22" fill="none" xmlns="http://www.w3.org/2000/svg">
<g clip-path="url(#clip0_1369_2656)">
<path d="M17.7288 1.1803C16.9593 1.36073 16.1861 1.542 15.8985 2.03873L13.6727 6.41228L1.72096 9.21442L1.23673 10.6118L10.3824 11.4647L8.83072 15.2509L5.36228 16.0641L4.49146 17.5521L6.99368 17.8201L7.27901 19.0371C7.40684 19.4685 7.85552 19.7565 8.2385 19.6667L9.39465 19.3956L10.7349 21.6492L11.6057 20.1611L10.7497 16.5101L13.2609 13.3536L18.0525 21.6468L19.0187 20.5656L16.07 7.9887L18.7779 3.93144C19.069 3.43387 18.8791 2.6238 18.6883 1.80994C18.5938 1.40681 18.1118 1.09051 17.7288 1.1803Z" fill="#1D2E5B"/>
</g>
<defs>
<clipPath id="clip0_1369_2656">
<rect width="22" height="22" fill="white"/>
</clipPath>
</defs>
</svg>
