<svg width="50" height="50" viewBox="0 0 50 50" fill="none" xmlns="http://www.w3.org/2000/svg">
<circle cx="25" cy="25" r="25" fill="#E2E5F2"/>
<g opacity="0.5">
<path fill-rule="evenodd" clip-rule="evenodd" d="M25 23.1244L26.1175 20.7756C26.395 20.194 26.8762 19.3576 27.5575 18.6815C28.2275 18.0159 29.03 17.5629 30 17.5629C32.095 17.5629 33.75 19.3038 33.75 21.3966C33.75 22.9865 33.0575 24.109 31.415 25.8211C30.9937 26.2596 30.5138 26.7335 29.9825 27.2561C28.5975 28.6215 26.875 30.3204 25 32.5917C23.125 30.3204 21.4025 28.6215 20.0175 27.2561C19.4862 26.7335 19.005 26.2583 18.585 25.8211C16.9425 24.109 16.25 22.9865 16.25 21.3966C16.25 19.3038 17.905 17.5629 20 17.5629C20.97 17.5629 21.7725 18.0159 22.4425 18.6815C23.1237 19.3576 23.605 20.194 23.8825 20.7756L25 23.1244ZM25.49 34.0109C25.4298 34.0858 25.3548 34.146 25.2701 34.1873C25.1855 34.2286 25.0933 34.25 25 34.25C24.9067 34.25 24.8145 34.2286 24.7299 34.1873C24.6452 34.146 24.5702 34.0858 24.51 34.0109C22.5087 31.5138 20.6975 29.7283 19.2063 28.2591C16.625 25.7134 15 24.113 15 21.3966C15 18.5541 17.2375 16.25 20 16.25C22 16.25 23.3987 17.6285 24.255 18.8863C24.58 19.3655 24.8275 19.8263 25 20.1887C25.2162 19.7352 25.4653 19.2998 25.745 18.8863C26.6012 17.6272 28 16.25 30 16.25C32.7625 16.25 35 18.5541 35 21.3966C35 24.113 33.375 25.7134 30.7938 28.2591C29.3025 29.7296 27.4913 31.5151 25.49 34.0096V34.0109Z" fill="#192144"/>
</g>
</svg>
